<svg id="visual" viewBox="0 0 1024 768" width="1024" height="768" xmlns="http://www.w3.org/2000/svg" xmlns:xlink="http://www.w3.org/1999/xlink" version="1.1"><rect x="0" y="0" width="1024" height="768" fill="#292c35"></rect><defs><linearGradient id="grad1_0" x1="25%" y1="100%" x2="100%" y2="0%"><stop offset="23.333333333333336%" stop-color="#292c35" stop-opacity="1"></stop><stop offset="76.66666666666666%" stop-color="#292c35" stop-opacity="1"></stop></linearGradient></defs><defs><linearGradient id="grad2_0" x1="0%" y1="100%" x2="75%" y2="0%"><stop offset="23.333333333333336%" stop-color="#292c35" stop-opacity="1"></stop><stop offset="76.66666666666666%" stop-color="#292c35" stop-opacity="1"></stop></linearGradient></defs><g transform="translate(1024, 768)"><path d="M-448 0C-437.3 -80.1 -426.6 -160.2 -388 -224C-349.4 -287.8 -282.8 -335.2 -213.5 -369.8C-144.2 -404.4 -72.1 -426.2 0 -448L0 0Z" fill="#e66969"></path></g><g transform="translate(0, 0)"><path d="M448 0C442 88.2 435.9 176.4 388 224C340 271.6 250.2 278.6 178.5 309.2C106.8 339.7 53.4 393.9 0 448L0 0Z" fill="#e66969"></path></g></svg>